<?xml version="1.0" encoding="utf-8"?>
<!-- Generated by IcoMoon.io -->
<!DOCTYPE svg PUBLIC "-//W3C//DTD SVG 1.1//EN" "http://www.w3.org/Graphics/SVG/1.1/DTD/svg11.dtd">
<svg version="1.1" xmlns="http://www.w3.org/2000/svg" xmlns:xlink="http://www.w3.org/1999/xlink" width="640" height="640" viewBox="0 0 640 640"><g id="icomoon-ignore">
</g>
<path d="M547.68 92.288c-53.632-53.632-120.928-73.216-142.368-51.776l-86.272 86.272c-13.088 13.12-24.512 56.928-19.264 101.248l-261.152 261.152c-15.488 15.488-2.944 53.12 28.032 84.128s68.672 43.488 84.128 28.064l261.152-261.184c44.352 5.248 88.16-6.176 101.248-19.232l86.272-86.304c21.44-21.44 1.856-88.768-51.776-142.368zM260.512 353.248c-11.936-11.904-8.032-35.072 8.608-51.744 16.672-16.672 39.872-20.576 51.776-8.64 11.904 11.872 8.032 35.104-8.64 51.744-16.672 16.704-39.84 20.576-51.744 8.64zM476.512 163.456c-41.536-41.504-51.936-96.32-48.256-100 3.68-3.712 56.32 8.864 97.888 50.4 41.536 41.536 54.016 94.272 50.4 97.888-3.584 3.584-58.528-6.72-100.032-48.288z"></path>
</svg>
